<svg width="16" height="16" viewBox="0 0 16 16" fill="none" xmlns="http://www.w3.org/2000/svg">
<g id="instagram" clip-path="url(#clip0)">
<path id="Vector" d="M8.00356 4.40626C5.73214 4.40626 3.89999 6.00939 3.89999 7.99689C3.89999 9.98439 5.73214 11.5875 8.00356 11.5875C10.275 11.5875 12.1071 9.98439 12.1071 7.99689C12.1071 6.00939 10.275 4.40626 8.00356 4.40626ZM8.00356 10.3313C6.53571 10.3313 5.33571 9.28439 5.33571 7.99689C5.33571 6.70939 6.53214 5.66251 8.00356 5.66251C9.47499 5.66251 10.6714 6.70939 10.6714 7.99689C10.6714 9.28439 9.47142 10.3313 8.00356 10.3313V10.3313ZM13.2321 4.25938C13.2321 4.72501 12.8036 5.09689 12.275 5.09689C11.7429 5.09689 11.3178 4.72189 11.3178 4.25938C11.3178 3.79688 11.7464 3.42188 12.275 3.42188C12.8036 3.42188 13.2321 3.79688 13.2321 4.25938ZM15.95 5.10939C15.8893 3.98751 15.5964 2.99376 14.6571 2.17501C13.7214 1.35626 12.5857 1.10001 11.3036 1.04376C9.98214 0.978131 6.02142 0.978131 4.69999 1.04376C3.42142 1.09688 2.28571 1.35313 1.34642 2.17188C0.407136 2.99063 0.11785 3.98438 0.0535644 5.10626C-0.0214355 6.26251 -0.0214355 9.72814 0.0535644 10.8844C0.114279 12.0063 0.407136 13 1.34642 13.8188C2.28571 14.6375 3.41785 14.8938 4.69999 14.95C6.02142 15.0156 9.98214 15.0156 11.3036 14.95C12.5857 14.8969 13.7214 14.6406 14.6571 13.8188C15.5928 13 15.8857 12.0063 15.95 10.8844C16.025 9.72814 16.025 6.26564 15.95 5.10939V5.10939ZM14.2428 12.125C13.9643 12.7375 13.425 13.2094 12.7214 13.4563C11.6679 13.8219 9.16785 13.7375 8.00356 13.7375C6.83928 13.7375 4.33571 13.8188 3.28571 13.4563C2.58571 13.2125 2.04642 12.7406 1.76428 12.125C1.34642 11.2031 1.44285 9.01564 1.44285 7.99689C1.44285 6.97814 1.34999 4.78751 1.76428 3.86876C2.04285 3.25626 2.58214 2.78438 3.28571 2.53751C4.33928 2.17188 6.83928 2.25626 8.00356 2.25626C9.16785 2.25626 11.6714 2.17501 12.7214 2.53751C13.4214 2.78126 13.9607 3.25313 14.2428 3.86876C14.6607 4.79064 14.5643 6.97814 14.5643 7.99689C14.5643 9.01564 14.6607 11.2063 14.2428 12.125Z" fill="#8C5B25"/>
</g>
<defs>
<clipPath id="clip0">
<rect width="16" height="16" fill="white"/>
</clipPath>
</defs>
</svg>
