<svg width="16" height="16" viewBox="0 0 16 16" fill="none" xmlns="http://www.w3.org/2000/svg">
<g id="postgresql">
<path id="Vector" d="M15.7067 9.81531C15.6974 9.78715 15.6846 9.76027 15.6687 9.73531C15.576 9.56065 15.3507 9.50798 14.9973 9.58131C13.8947 9.80798 13.468 9.66798 13.3133 9.56798C14.208 8.20265 14.9433 6.55331 15.3407 5.01465C15.522 4.31465 15.8727 2.66598 15.422 1.86131C15.3934 1.80599 15.36 1.75333 15.322 1.70398C14.4613 0.606648 13.2 0.0166477 11.6733 0.000647738C10.6767 -0.0100189 9.82666 0.231314 9.59599 0.319981C9.48185 0.298591 9.36714 0.280362 9.25199 0.265314C8.96324 0.213212 8.67071 0.184894 8.37733 0.180648C7.58933 0.167981 6.90866 0.356648 6.34399 0.740648C5.77333 0.526648 3.15266 -0.356019 1.53066 0.793314C0.623326 1.43531 0.205993 2.58198 0.28666 4.20265C0.313993 4.74798 0.62466 6.42531 1.11533 8.03198C1.42199 9.03598 1.74066 9.83331 2.07066 10.42C2.43933 11.0826 2.82133 11.482 3.21333 11.6133C3.51199 11.712 3.96866 11.7086 4.45199 11.1273C4.87126 10.6258 5.30363 10.1354 5.74866 9.65665C6.03866 9.81331 6.35266 9.89798 6.67533 9.90798C6.67529 9.90887 6.67529 9.90976 6.67533 9.91065C6.61924 9.97744 6.56434 10.0452 6.51066 10.114C6.28466 10.4006 6.23733 10.4606 5.51066 10.6106C5.30399 10.6533 4.75466 10.766 4.74666 11.1513C4.74513 11.2283 4.76622 11.3041 4.80733 11.3693C4.95866 11.6513 5.42199 11.776 5.48399 11.7913C6.37399 12.0133 7.15399 11.8526 7.73199 11.3386C7.72066 12.826 7.78333 14.284 7.96199 14.7306C8.10933 15.0993 8.46999 16 9.60866 16C9.77533 16 9.95933 15.98 10.1613 15.9373C11.3493 15.6826 11.8653 15.1573 12.0647 14C12.1647 13.42 12.3327 12.0833 12.424 11.266C12.4353 11.2193 12.448 11.186 12.462 11.1753C12.462 11.1753 12.5087 11.1433 12.7467 11.1953C12.7563 11.1975 12.7661 11.199 12.776 11.2L12.9453 11.2146L12.9553 11.2153C13.52 11.2413 14.2293 11.1206 14.6427 10.9286C15.072 10.7286 15.8467 10.24 15.706 9.81531H15.7067ZM1.57999 7.91731C1.08399 6.29398 0.79466 4.66065 0.771993 4.20331C0.699326 2.75531 1.04999 1.74798 1.81333 1.20798C3.03799 0.341981 5.03999 0.847981 5.88533 1.12131L5.87866 1.12798C4.52999 2.48931 4.56199 4.81731 4.56666 4.95998C4.56666 5.01465 4.57066 5.09265 4.57733 5.19998C4.59999 5.59065 4.64399 6.31998 4.52799 7.14531C4.42133 7.91198 4.65733 8.66265 5.17666 9.20465C5.22999 9.26065 5.28666 9.31331 5.34466 9.36265C5.11333 9.60998 4.61133 10.158 4.07599 10.8013C3.69733 11.256 3.43599 11.1686 3.35066 11.14C3.08933 11.0533 2.80866 10.7486 2.52466 10.2586C2.20466 9.69931 1.88266 8.90398 1.58133 7.91731H1.57999ZM5.58466 11.3093C5.48345 11.2838 5.38645 11.2439 5.29666 11.1906C5.35599 11.1646 5.45466 11.1306 5.61866 11.0973C6.47466 10.9206 6.60666 10.7966 6.89533 10.4306C6.96133 10.346 7.03599 10.2506 7.13999 10.1353C7.16241 10.1103 7.17922 10.0807 7.18933 10.0486C7.30266 9.94798 7.37066 9.97531 7.47999 10.0206C7.58399 10.064 7.68533 10.194 7.72666 10.3373C7.74666 10.4053 7.76799 10.534 7.69666 10.634C7.09399 11.478 6.21533 11.4673 5.58466 11.3093ZM6.98066 8.65065L6.94599 8.74398C6.85733 8.98198 6.77466 9.20331 6.72333 9.41331C6.27866 9.41198 5.84533 9.22131 5.51666 8.87798C5.09799 8.44131 4.90799 7.83398 4.99466 7.21131C5.11666 6.33931 5.07199 5.57998 5.04799 5.17198L5.03933 5.02531C5.23666 4.85065 6.14999 4.36131 6.80133 4.51065C7.09866 4.57865 7.27999 4.78131 7.35466 5.12931C7.74466 6.93198 7.40666 7.68265 7.13466 8.28665C7.07947 8.40622 7.02833 8.52762 6.98133 8.65065H6.98066ZM11.89 11.6986C11.8787 11.8166 11.866 11.9493 11.8487 12.096L11.7513 12.388C11.7436 12.4112 11.7396 12.4355 11.7393 12.46C11.7353 12.7766 11.7033 12.8926 11.6627 13.04C11.62 13.1926 11.5727 13.3653 11.5427 13.7446C11.4693 14.6873 10.9573 15.2293 9.93133 15.4486C8.92133 15.6653 8.74199 15.118 8.58466 14.6346C8.56825 14.5839 8.55091 14.5334 8.53266 14.4833C8.38933 14.0926 8.40599 13.542 8.42799 12.78C8.43866 12.406 8.41133 11.5126 8.20799 11.016C8.21066 10.8206 8.21466 10.622 8.22066 10.4213C8.22121 10.3958 8.21761 10.3703 8.20999 10.346C8.20352 10.2991 8.19372 10.2528 8.18066 10.2073C8.09933 9.92198 7.90066 9.68331 7.66066 9.58398C7.56599 9.54465 7.39199 9.47265 7.18266 9.52598C7.22733 9.34198 7.30466 9.13465 7.38866 8.90931L7.42399 8.81465C7.46399 8.70798 7.51333 8.59798 7.56599 8.48131C7.84999 7.84931 8.23933 6.98398 7.81666 5.02931C7.65866 4.29731 7.12999 3.93998 6.32866 4.02265C5.84866 4.07265 5.40866 4.26665 5.18933 4.37731C5.14532 4.39957 5.10176 4.42269 5.05866 4.44665C5.11999 3.70931 5.35133 2.33065 6.21599 1.45865C6.28016 1.39393 6.34758 1.33252 6.41799 1.27465C6.45303 1.26794 6.48609 1.25335 6.51466 1.23198C7.01599 0.851981 7.64466 0.665314 8.38266 0.676648C8.65599 0.681314 8.91733 0.699314 9.16533 0.730648C10.4587 0.967314 11.328 1.69531 11.856 2.31931C12.3987 2.96065 12.6927 3.60665 12.81 3.95531C11.928 3.86598 11.328 4.03998 11.0233 4.47531C10.362 5.42065 11.386 7.25665 11.878 8.13931C11.968 8.30065 12.046 8.44065 12.0707 8.49931C12.2307 8.88798 12.438 9.14731 12.5893 9.33665C12.636 9.39465 12.6813 9.45065 12.7153 9.49998C12.4487 9.57731 11.9687 9.75531 12.012 10.6446C12.0033 10.7486 11.9833 10.9426 11.956 11.188C11.9253 11.3266 11.9093 11.4946 11.8893 11.6986H11.89ZM12.4833 10.618C12.4567 10.0633 12.6633 10.0053 12.8813 9.94465C12.9115 9.93628 12.9416 9.92716 12.9713 9.91731C12.9995 9.94227 13.0293 9.96522 13.0607 9.98598C13.4407 10.2366 14.116 10.2666 15.0653 10.0753C14.9307 10.1933 14.7193 10.342 14.43 10.476C14.1567 10.6026 13.6993 10.698 13.2653 10.7186C12.7853 10.7413 12.5413 10.6653 12.4833 10.618V10.618ZM12.8633 4.43731C12.8593 4.67065 12.8273 4.88331 12.7933 5.10465C12.7567 5.34331 12.7187 5.58998 12.7087 5.88931C12.6993 6.17998 12.7353 6.48265 12.7707 6.77598C12.842 7.36731 12.9147 7.97598 12.6327 8.57665C12.5857 8.49371 12.5439 8.408 12.5073 8.31998C12.4415 8.17961 12.3692 8.04236 12.2907 7.90865C11.88 7.17265 10.9193 5.44865 11.4107 4.74598C11.664 4.38398 12.3053 4.36865 12.8633 4.43731V4.43731ZM13.0153 9.11265C12.9966 9.08876 12.9777 9.06499 12.9587 9.04131L12.9353 9.01198C13.4193 8.21198 13.3247 7.42065 13.24 6.71931C13.2053 6.43131 13.1733 6.15931 13.1813 5.90465C13.19 5.63331 13.2253 5.40131 13.26 5.17665C13.3027 4.89998 13.3467 4.61398 13.334 4.27665C13.3439 4.23519 13.3466 4.19235 13.342 4.14998C13.3113 3.82598 12.942 2.85798 12.1887 1.98131C11.6977 1.4027 11.086 0.938515 10.3967 0.621314C10.8407 0.530498 11.2935 0.488913 11.7467 0.497314C13.1147 0.527981 14.1967 1.03998 14.9627 2.01931C14.979 2.04052 14.9939 2.0628 15.0073 2.08598C15.4893 2.98998 14.8233 6.26931 13.016 9.11265H13.0153ZM7.13799 5.03531C7.12133 5.15531 6.93133 5.31731 6.72399 5.31731C6.70592 5.31724 6.68788 5.3159 6.66999 5.31331C6.53462 5.28958 6.41371 5.21431 6.33266 5.10331C6.30199 5.06331 6.25266 4.98465 6.26199 4.91331C6.26506 4.89342 6.27214 4.87436 6.2828 4.85729C6.29346 4.84021 6.30747 4.82548 6.32399 4.81398C6.40266 4.75465 6.55866 4.73265 6.73066 4.75665C6.94133 4.78598 7.15866 4.88531 7.13733 5.03531H7.13799ZM12.4247 4.76131C12.432 4.81465 12.392 4.89465 12.3227 4.96798C12.2509 5.04617 12.1552 5.09844 12.0507 5.11665C12.0341 5.11891 12.0174 5.12002 12.0007 5.11998C11.8053 5.11998 11.64 4.96398 11.6273 4.87265C11.6113 4.75465 11.8033 4.66598 12.0007 4.63798C12.1993 4.60998 12.4087 4.64398 12.4247 4.76131V4.76131Z" fill="#8C5B25"/>
</g>
</svg>
