<svg width="16" height="16" viewBox="0 0 16 16" fill="none" xmlns="http://www.w3.org/2000/svg">
<g id="spring" clip-path="url(#clip0)">
<path id="Vector" d="M14.5699 0.94334C14.3478 1.47621 14.0602 1.9794 13.7139 2.44134C12.9726 1.67348 12.0847 1.06217 11.1029 0.643624C10.121 0.225075 9.06521 0.00779303 7.99788 0.00464291C6.93056 0.00149278 5.87346 0.212539 4.88917 0.625284C3.90488 1.03803 3.01341 1.64408 2.26756 2.40756C1.52171 3.17103 0.936638 4.0764 0.546987 5.07006C0.157335 6.06372 -0.0289719 7.12546 -0.000902574 8.19242C0.0271667 9.25938 0.269042 10.3099 0.7104 11.2817C1.15176 12.2534 1.78363 13.1268 2.56859 13.85L2.86459 14.1133C3.98907 15.0619 5.35415 15.6806 6.80865 15.9011C8.26314 16.1216 9.75028 15.9351 11.1053 15.3624C12.4604 14.7898 13.6305 13.8532 14.486 12.6564C15.3416 11.4597 15.8492 10.0495 15.9526 8.58201C16.1833 6.57334 15.5739 4.00534 14.5699 0.94334V0.94334ZM3.72059 13.916C3.63597 14.0199 3.52246 14.0964 3.39439 14.1358C3.26633 14.1752 3.12945 14.1758 3.00105 14.1375C2.87265 14.0992 2.75847 14.0237 2.67295 13.9206C2.58743 13.8174 2.53439 13.6912 2.52053 13.558C2.50667 13.4247 2.53262 13.2903 2.59509 13.1717C2.65756 13.0532 2.75376 12.9558 2.87153 12.8919C2.98931 12.828 3.12338 12.8004 3.25681 12.8127C3.39025 12.8249 3.51707 12.8764 3.62126 12.9607C3.75776 13.0763 3.84431 13.2401 3.86282 13.418C3.88133 13.5959 3.83037 13.7741 3.72059 13.9153V13.916ZM14.5199 11.5287C12.5606 14.146 8.34659 13.2573 5.66259 13.3887C5.66259 13.3887 5.18526 13.422 4.70792 13.4873C4.70792 13.4873 4.88926 13.4053 5.11992 13.3227C7.01325 12.6647 7.90192 12.5327 9.05392 11.94C11.2106 10.8373 13.3673 8.41734 13.7953 5.91467C12.9719 8.31867 10.4699 10.3927 8.19792 11.232C6.63392 11.8087 3.81926 12.368 3.81926 12.368L3.70392 12.302C1.79392 11.364 1.72859 7.21534 5.21859 5.88201C6.74926 5.28867 8.19859 5.61867 9.86059 5.22334C11.6226 4.81201 13.6639 3.49467 14.4873 1.76601C15.4086 4.54867 16.5279 8.86134 14.5199 11.5287Z" fill="#8C5B25"/>
</g>
<defs>
<clipPath id="clip0">
<rect width="16" height="16" fill="white"/>
</clipPath>
</defs>
</svg>
