<svg width="16" height="16" viewBox="0 0 16 16" fill="none" xmlns="http://www.w3.org/2000/svg">
<g id="jest" clip-path="url(#clip0)">
<path id="vector" d="M9.25364 7.92901L10.5138 7.94718L10.5139 7.95108C10.5319 9.0595 11.4391 9.95555 12.5517 9.95555C12.9835 9.95555 13.384 9.82023 13.7139 9.5903C13.943 10.0592 14.0283 10.5868 13.937 11.1123C13.8166 11.8062 13.388 12.4124 12.7612 12.7754C12.1769 13.1138 11.4767 13.2148 10.7354 13.3217C10.3383 13.379 9.92759 13.4382 9.52643 13.5372C8.46566 13.7987 7.4382 14.3091 6.4446 14.8026C4.45622 15.7902 2.73897 16.6431 1.11982 15.5209C-0.0662439 14.6989 -0.0114692 13.178 0.126712 12.3445C0.254748 11.5724 0.600949 10.8613 0.93576 10.1735C0.993709 10.0545 1.04998 9.93793 1.10519 9.82209C1.27126 9.88851 1.44784 9.93376 1.6319 9.9543C1.29111 11.0791 1.82709 12.3021 2.95203 12.88L3.10596 12.9591L3.26904 12.9011C4.15838 12.5844 4.97782 12.0761 5.70471 11.3903C6.17459 10.9471 6.57836 10.4567 6.91037 9.93264C7.00996 9.94764 7.11186 9.95555 7.21556 9.95555C8.33551 9.95555 9.24738 9.04758 9.25364 7.92901ZM1.85921 6.69122C2.5419 6.69122 3.09725 7.24656 3.09725 7.92919C3.09725 8.61182 2.5419 9.16723 1.85921 9.16723C1.17664 9.16723 0.621241 8.61182 0.621241 7.92919C0.621241 7.24656 1.17664 6.69122 1.85921 6.69122ZM12.5517 6.67946C13.2344 6.67946 13.7897 7.2348 13.7897 7.91743C13.7897 8.60006 13.2344 9.15546 12.5517 9.15546C11.8691 9.15546 11.3137 8.60006 11.3137 7.91743C11.3137 7.2348 11.8691 6.67946 12.5517 6.67946ZM7.21556 6.67946C7.89819 6.67946 8.45353 7.2348 8.45353 7.91743C8.45353 8.60006 7.89819 9.15546 7.21556 9.15546C6.53299 9.15546 5.97759 8.60006 5.97759 7.91743C5.97759 7.2348 6.53299 6.67946 7.21556 6.67946ZM14.0713 0.0529633L12.0767 5.93583C11.9902 5.95656 11.906 5.9827 11.8241 6.01413L9.85371 1.99454L7.87758 5.99036C7.79219 5.96091 7.7043 5.9367 7.61417 5.91878L5.62641 0.0529633H14.0713Z" fill="#8C5B25"/>
</g>
<defs>
<clipPath id="clip0">
<rect width="16" height="16" fill="white"/>
</clipPath>
</defs>
</svg>
