<svg width="16" height="16" viewBox="0 0 16 16" fill="none" xmlns="http://www.w3.org/2000/svg">
<rect width="16" height="16" fill="#E5E5E5"/>
<g id="Typography">
<rect width="1440" height="1024" transform="translate(-1069 -74)" fill="white"/>
<g id="icons">
<g id="no-icon">
<path id="vector" d="M11 13.5C11 14.8785 9.8785 16 8.5 16C7.1215 16 6 14.8785 6 13.5C6 12.1215 7.1215 11 8.5 11C9.8785 11 11 12.1215 11 13.5ZM6.28938 0.787469L6.71437 9.28747C6.73434 9.68663 7.06378 10 7.46344 10H9.53656C9.93622 10 10.2657 9.68663 10.2856 9.28747L10.7106 0.787469C10.732 0.359062 10.3905 0 9.96156 0H7.03844C6.6095 0 6.26797 0.359062 6.28938 0.787469Z" fill="#8C5B25"/>
</g>
</g>
</g>
</svg>
