<svg width="16" height="16" viewBox="0 0 16 16" fill="none" xmlns="http://www.w3.org/2000/svg">
<rect width="16" height="16" fill="#E5E5E5"/>
<g id="Typography">
<rect width="1440" height="1024" transform="translate(-233 -80)" fill="white"/>
<g id="icons">
<g id="phone">
<path id="Vector" d="M15.4187 0.769072L12.1688 0.0190875C11.8157 -0.0621608 11.4532 0.12221 11.3095 0.453453L9.80949 3.95338C9.67825 4.25962 9.76574 4.61899 10.0251 4.82836L11.9188 6.37833C10.7938 8.77515 8.82826 10.7689 6.38144 11.9157L4.83147 10.022C4.61898 9.76263 4.26274 9.67513 3.95649 9.80638L0.456566 11.3063C0.122198 11.4532 -0.0621732 11.8157 0.0190751 12.1688L0.769059 15.4188C0.847183 15.7563 1.14718 16 1.50029 16C9.50325 16 16 9.51576 16 1.50031C16 1.15031 15.7594 0.847195 15.4187 0.769072Z" fill="#8C5B25"/>
</g>
</g>
</g>
</svg>
