<svg width="16" height="16" viewBox="0 0 16 16" fill="none" xmlns="http://www.w3.org/2000/svg">
<g id="twitter">
<path id="Vector" d="M14.3553 4.7411C14.3655 4.88322 14.3655 5.02538 14.3655 5.1675C14.3655 9.5025 11.066 14.4974 5.03553 14.4974C3.17766 14.4974 1.45178 13.9593 0 13.0254C0.263969 13.0558 0.51775 13.066 0.791875 13.066C2.32484 13.066 3.73603 12.5482 4.86294 11.665C3.42131 11.6345 2.21319 10.6903 1.79694 9.39085C2 9.42128 2.20303 9.4416 2.41625 9.4416C2.71066 9.4416 3.00509 9.40097 3.27919 9.32994C1.77666 9.02535 0.649719 7.70556 0.649719 6.11166V6.07106C1.08625 6.31472 1.59391 6.467 2.13194 6.48728C1.24869 5.89844 0.670031 4.89338 0.670031 3.75631C0.670031 3.14719 0.832438 2.58881 1.11672 2.1015C2.73094 4.09135 5.15734 5.39081 7.87813 5.53297C7.82738 5.28931 7.79691 5.03553 7.79691 4.78172C7.79691 2.9746 9.25884 1.50253 11.0761 1.50253C12.0203 1.50253 12.873 1.89847 13.472 2.53806C14.2131 2.39594 14.9238 2.12181 15.5533 1.74619C15.3096 2.50763 14.7918 3.14722 14.1116 3.55328C14.7715 3.48225 15.4111 3.29947 15.9999 3.04569C15.5533 3.69541 14.9949 4.27406 14.3553 4.7411Z" fill="#8C5B25"/>
</g>
</svg>
